<svg width="500" height="500" viewBox="0 0 500 500" fill="none" xmlns="http://www.w3.org/2000/svg">
<rect width="500" height="500" fill="#222222"/>
<path fill-rule="evenodd" clip-rule="evenodd" d="M29.2334 249.999C29.2334 191.448 52.4927 135.295 93.8945 93.8935C135.296 52.4917 191.449 29.2324 250 29.2324C308.551 29.2324 364.704 52.4917 406.106 93.8935C447.507 135.295 470.767 191.448 470.767 249.999C470.767 308.55 447.507 364.703 406.106 406.105C364.704 447.506 308.551 470.766 250 470.766C191.449 470.766 135.296 447.506 93.8945 406.105C52.4927 364.703 29.2334 308.55 29.2334 249.999ZM250 60.8991C213.347 60.9004 177.485 71.5535 146.775 91.5626C116.066 111.572 91.8335 140.074 77.0257 173.603C62.218 207.131 57.4733 244.24 63.3689 280.416C69.2645 316.591 85.5462 350.274 110.233 377.366C125.219 353.888 145.881 334.568 170.311 321.191C194.74 307.814 222.148 300.812 250 300.832C277.852 300.812 305.26 307.814 329.69 321.191C354.119 334.568 374.782 353.888 389.767 377.366C414.454 350.274 430.736 316.591 436.631 280.416C442.527 244.24 437.782 207.131 422.974 173.603C408.167 140.074 383.934 111.572 353.225 91.5626C322.515 71.5535 286.653 60.9004 250 60.8991ZM366.067 399.299C354.279 378.963 337.349 362.085 316.977 350.36C296.604 338.635 273.506 332.475 250 332.499C226.494 332.475 203.396 338.635 183.024 350.36C162.651 362.085 145.721 378.963 133.933 399.299C167.095 425.15 207.953 439.161 250 439.099C293.733 439.099 334 424.232 366.067 399.299ZM171.667 216.832C171.667 196.057 179.92 176.133 194.61 161.442C209.3 146.752 229.225 138.499 250 138.499C270.775 138.499 290.7 146.752 305.39 161.442C320.08 176.133 328.333 196.057 328.333 216.832C328.333 237.608 320.08 257.532 305.39 272.222C290.7 286.913 270.775 295.166 250 295.166C229.225 295.166 209.3 286.913 194.61 272.222C179.92 257.532 171.667 237.608 171.667 216.832ZM250 170.166C243.872 170.166 237.803 171.373 232.142 173.718C226.48 176.063 221.335 179.501 217.002 183.834C212.668 188.168 209.231 193.312 206.886 198.974C204.54 204.636 203.333 210.704 203.333 216.832C203.333 222.961 204.54 229.029 206.886 234.691C209.231 240.353 212.668 245.497 217.002 249.831C221.335 254.164 226.48 257.602 232.142 259.947C237.803 262.292 243.872 263.499 250 263.499C262.377 263.499 274.247 258.582 282.998 249.831C291.75 241.079 296.667 229.209 296.667 216.832C296.667 204.456 291.75 192.586 282.998 183.834C274.247 175.082 262.377 170.166 250 170.166Z" fill="url(#paint0_linear_204_85)"/>
<defs>
<linearGradient id="paint0_linear_204_85" x1="127.973" y1="-58.9978" x2="376" y2="551.998" gradientUnits="userSpaceOnUse">
<stop stop-color="#B3480D"/>
<stop offset="1" stop-color="#FF8B4A"/>
</linearGradient>
</defs>
</svg>
