<svg width="773" height="125" viewBox="0 0 773 125" fill="none" xmlns="http://www.w3.org/2000/svg">
<path d="M77.2292 33.0363L84.599 25.6717L62.5001 3.57275L40.4011 25.6769L47.7709 33.0415L62.5001 18.3071L77.2292 33.0363ZM25.672 84.5988L33.0365 77.229L18.3074 62.4998L33.0365 47.7707L25.6772 40.4009L3.573 62.4998L25.672 84.5988ZM40.4011 99.3279L62.5001 121.427L84.599 99.3279L77.2292 91.9634L62.5001 106.693L47.7709 91.9634L40.4011 99.3279ZM91.9636 47.7707L106.693 62.4998L91.9636 77.229L99.3282 84.5988L121.427 62.4998L99.323 40.4009L91.9636 47.7707Z" fill="#B3480D"/>
<path fill-rule="evenodd" clip-rule="evenodd" d="M62.5001 41.6665C68.0254 41.6665 73.3245 43.8614 77.2315 47.7684C81.1385 51.6754 83.3334 56.9745 83.3334 62.4998C83.3334 68.0252 81.1385 73.3242 77.2315 77.2312C73.3245 81.1382 68.0254 83.3332 62.5001 83.3332C56.9747 83.3332 51.6757 81.1382 47.7687 77.2312C43.8617 73.3242 41.6667 68.0252 41.6667 62.4998C41.6667 56.9745 43.8617 51.6754 47.7687 47.7684C51.6757 43.8614 56.9747 41.6665 62.5001 41.6665ZM62.5001 52.0832C65.2627 52.0832 67.9123 53.1806 69.8658 55.1341C71.8193 57.0876 72.9167 59.7372 72.9167 62.4998C72.9167 65.2625 71.8193 67.912 69.8658 69.8655C67.9123 71.819 65.2627 72.9165 62.5001 72.9165C59.7374 72.9165 57.0879 71.819 55.1344 69.8655C53.1809 67.912 52.0834 65.2625 52.0834 62.4998C52.0834 59.7372 53.1809 57.0876 55.1344 55.1341C57.0879 53.1806 59.7374 52.0832 62.5001 52.0832Z" fill="#B3480D"/>
<path d="M177.1 40.6875H218.311C220.133 40.7526 221.631 41.4362 222.803 42.7383C224.04 44.0404 224.658 45.6029 224.658 47.4258C224.333 51.332 222.217 53.4479 218.311 53.7734H180.42C177.946 53.9036 175.895 54.8477 174.268 56.6055C172.64 58.3633 171.436 60.3815 170.654 62.6602C169.938 64.8737 169.58 67.1523 169.58 69.4961C169.58 71.8398 169.938 74.151 170.654 76.4297C171.436 78.6432 172.64 80.6289 174.268 82.3867C175.895 84.1445 177.946 85.0885 180.42 85.2188H210.107C211.279 85.1536 211.898 84.5026 211.963 83.2656V77.6016C211.898 76.2995 211.279 75.6484 210.107 75.6484H185.107C183.285 75.6484 181.722 75.0299 180.42 73.793C179.183 72.4909 178.564 70.9284 178.564 69.1055C178.564 67.2826 179.183 65.7201 180.42 64.418C181.722 63.181 183.285 62.5625 185.107 62.5625H218.506C220.329 62.5625 221.891 63.181 223.193 64.418C224.365 65.6549 224.984 67.1523 225.049 68.9102V69.1055V91.957C224.984 93.7148 224.365 95.1797 223.193 96.3516C221.956 97.5885 220.459 98.2396 218.701 98.3047H177.1C172.542 98.0443 168.766 96.319 165.771 93.1289C162.842 89.8737 160.726 86.1953 159.424 82.0938C158.187 77.9922 157.568 73.793 157.568 69.4961C157.568 65.1992 158.219 61 159.521 56.8984C160.824 52.7969 162.939 49.151 165.869 45.9609C168.799 42.7057 172.542 40.9479 177.1 40.6875ZM469.971 47.2305C469.971 45.4076 470.589 43.8776 471.826 42.6406C473.128 41.3385 474.691 40.6875 476.514 40.6875H533.35C535.173 40.6875 536.735 41.306 538.037 42.543C539.274 43.8451 539.893 45.4076 539.893 47.2305C539.893 49.0534 539.274 50.5833 538.037 51.8203C537.646 52.2109 537.256 52.5365 536.865 52.7969L495.459 85.0234H533.35C535.173 85.0234 536.735 85.6419 538.037 86.8789C539.274 88.181 539.893 89.7435 539.893 91.5664C539.893 93.3893 539.242 94.9518 537.939 96.2539C536.702 97.4909 535.173 98.1094 533.35 98.1094H476.514C474.691 98.1094 473.161 97.4583 471.924 96.1562C470.622 94.9193 469.971 93.3893 469.971 91.5664C469.971 89.8737 470.524 88.4089 471.631 87.1719H471.533L471.924 86.8789C472.314 86.4883 472.738 86.1628 473.193 85.9023L515.088 53.7734H476.514C474.691 53.7734 473.161 53.1224 471.924 51.8203C470.622 50.5833 469.971 49.0534 469.971 47.2305Z" fill="#B3480D"/>
<path d="M291.748 93.1289V69.5938C291.748 67.9661 290.902 67.1198 289.209 67.0547H255.029C253.792 67.1198 252.718 67.6732 251.807 68.7148C250.895 69.6914 250.212 70.8633 249.756 72.2305C249.365 73.5326 249.17 74.8672 249.17 76.2344C249.17 77.5365 249.365 78.8711 249.756 80.2383C250.212 81.5404 250.895 82.7122 251.807 83.7539C252.718 84.7305 253.792 85.2188 255.029 85.2188H280.029C281.852 85.2188 283.382 85.8698 284.619 87.1719C285.921 88.4089 286.572 89.9388 286.572 91.7617C286.572 93.5846 285.921 95.1146 284.619 96.3516C283.382 97.6536 281.852 98.3047 280.029 98.3047H255.42C250.863 98.2396 247.087 96.9701 244.092 94.4961C241.162 91.957 239.046 89.125 237.744 86C236.507 82.8099 235.889 79.5221 235.889 76.1367C235.889 72.8815 236.54 69.6914 237.842 66.5664C239.144 63.3763 241.26 60.5443 244.189 58.0703C247.119 55.5312 251.449 54.1641 257.178 53.9688H298.193C300.016 53.9688 301.579 54.5872 302.881 55.8242C304.183 56.9961 304.867 58.4935 304.932 60.3164V93.1289C304.932 94.9518 304.248 96.4818 302.881 97.7188C301.579 98.8906 300.016 99.4766 298.193 99.4766C294.287 99.151 292.139 97.0352 291.748 93.1289ZM338.232 52.5039C340.511 52.5039 342.725 52.8945 344.873 53.6758C347.087 54.457 349.202 55.5964 351.221 57.0938C351.546 57.4193 351.904 57.7448 352.295 58.0703C352.62 57.7448 352.979 57.4193 353.369 57.0938C355.387 55.5964 357.471 54.457 359.619 53.6758C361.833 52.8945 364.046 52.5039 366.26 52.5039C368.538 52.5039 370.752 52.8945 372.9 53.6758C375.114 54.457 377.197 55.6289 379.15 57.1914C381.169 58.6888 382.926 60.707 384.424 63.2461C385.986 65.7852 386.768 68.8125 386.768 72.3281V93.1289C386.377 97.0352 384.229 99.151 380.322 99.4766C378.499 99.4766 376.904 98.8906 375.537 97.7188C374.235 96.4818 373.584 94.9518 373.584 93.1289V73.1094C373.584 71.5469 373.291 70.2448 372.705 69.2031C372.119 68.0964 371.468 67.25 370.752 66.6641C370.036 66.013 369.287 65.5573 368.506 65.2969C367.725 64.9714 366.943 64.8086 366.162 64.8086C365.381 64.8086 364.6 64.9714 363.818 65.2969C363.102 65.5573 362.386 66.013 361.67 66.6641C360.954 67.25 360.303 68.0964 359.717 69.2031C359.131 70.2448 358.805 71.5469 358.74 73.1094V93.1289C358.35 97.0352 356.201 99.151 352.295 99.4766C350.472 99.4766 348.877 98.8906 347.51 97.7188C346.208 96.4818 345.557 94.9518 345.557 93.1289V73.1094C345.557 71.5469 345.264 70.2448 344.678 69.2031C344.092 68.0964 343.441 67.25 342.725 66.6641C342.008 66.013 341.26 65.5573 340.479 65.2969C339.697 64.9714 338.916 64.8086 338.135 64.8086C337.354 64.8086 336.572 64.9714 335.791 65.2969C335.075 65.5573 334.359 66.013 333.643 66.6641C332.926 67.25 332.275 68.0964 331.689 69.2031C331.104 70.2448 330.778 71.5469 330.713 73.1094V93.1289C330.387 97.0352 328.271 99.151 324.365 99.4766C322.542 99.4766 320.947 98.8906 319.58 97.7188C318.278 96.4818 317.627 94.9518 317.627 93.1289V72.3281C317.757 68.8125 318.571 65.7852 320.068 63.2461C321.566 60.707 323.324 58.6888 325.342 57.1914C327.36 55.6289 329.443 54.457 331.592 53.6758C333.805 52.8945 336.019 52.5039 338.232 52.5039ZM418.896 98.3047C413.167 98.1094 408.838 96.7747 405.908 94.3008C402.979 91.7617 400.863 88.9297 399.561 85.8047C398.258 82.6146 397.607 79.3919 397.607 76.1367C397.607 72.7513 398.226 69.4961 399.463 66.3711C400.765 63.181 402.881 60.349 405.811 57.875C408.805 55.3359 412.581 54.0339 417.139 53.9688H454.248C456.071 53.9688 457.601 54.5872 458.838 55.8242C460.14 56.9961 460.791 58.4284 460.791 60.1211C460.791 61.8789 460.14 63.3763 458.838 64.6133C457.601 65.7852 456.071 66.3711 454.248 66.3711H417.725C416.292 66.3711 415.023 66.8594 413.916 67.8359C412.874 68.8125 412.093 70.082 411.572 71.6445C411.117 73.207 410.889 74.737 410.889 76.2344C410.889 77.862 411.117 79.457 411.572 81.0195C412.093 82.582 412.874 83.8516 413.916 84.8281C415.023 85.7396 416.292 86.2279 417.725 86.293H454.248C456.071 86.293 457.601 86.8789 458.838 88.0508C460.14 89.2227 460.791 90.6224 460.791 92.25C460.791 93.9427 460.14 95.375 458.838 96.5469C457.601 97.7188 456.071 98.3047 454.248 98.3047H418.896ZM459.619 75.9414C459.619 77.1784 459.066 78.2526 457.959 79.1641C456.982 80.0104 455.745 80.4336 454.248 80.4336H422.314C420.817 80.4336 419.548 80.0104 418.506 79.1641C417.464 78.2526 416.943 77.1784 416.943 75.9414C416.943 74.7695 417.464 73.7279 418.506 72.8164C419.548 71.9701 420.817 71.5469 422.314 71.5469H454.248C455.745 71.5469 457.015 72.0026 458.057 72.9141C459.098 73.7604 459.619 74.7695 459.619 75.9414ZM570.264 98.3047C564.535 98.1094 560.205 96.7747 557.275 94.3008C554.346 91.7617 552.23 88.9297 550.928 85.8047C549.626 82.6146 548.975 79.3919 548.975 76.1367C548.975 72.7513 549.593 69.4961 550.83 66.3711C552.132 63.181 554.248 60.349 557.178 57.875C560.173 55.3359 563.949 54.0339 568.506 53.9688H600.146C604.704 54.0339 608.447 55.3359 611.377 57.875C614.372 60.349 616.488 63.181 617.725 66.3711C619.027 69.4961 619.678 72.7513 619.678 76.1367C619.678 79.3919 619.027 82.6146 617.725 85.8047C616.423 88.9297 614.307 91.7617 611.377 94.3008C608.447 96.7747 604.118 98.1094 598.389 98.3047H570.264ZM568.115 67.0547C566.878 67.0547 565.804 67.5755 564.893 68.6172C563.981 69.5938 563.298 70.7656 562.842 72.1328C562.451 73.4349 562.256 74.737 562.256 76.0391C562.256 77.4062 562.451 78.7734 562.842 80.1406C563.298 81.4427 563.981 82.6146 564.893 83.6562C565.804 84.6328 566.878 85.1536 568.115 85.2188H600.537C601.774 85.1536 602.848 84.6328 603.76 83.6562C604.671 82.6146 605.322 81.4427 605.713 80.1406C606.169 78.7734 606.396 77.4062 606.396 76.0391C606.396 74.737 606.169 73.4349 605.713 72.1328C605.322 70.7656 604.671 69.5938 603.76 68.6172C602.848 67.5755 601.774 67.0547 600.537 67.0547H568.115ZM662.061 52.5039C665.446 52.5039 668.766 52.8945 672.021 53.6758C675.342 54.457 678.499 55.6289 681.494 57.1914C684.489 58.6888 687.126 60.707 689.404 63.2461C691.748 65.7852 693.018 68.8125 693.213 72.3281V76.4297V93.1289C692.822 97.0352 690.674 99.151 686.768 99.4766C684.945 99.4766 683.35 98.8906 681.982 97.7188C680.68 96.4818 680.029 94.9518 680.029 93.1289V88.832V75.3555C679.899 73.3372 679.118 71.6771 677.686 70.375C676.318 69.0078 674.756 67.9336 672.998 67.1523C671.305 66.3711 669.515 65.7852 667.627 65.3945C665.804 65.0039 663.949 64.8086 662.061 64.8086C660.173 64.8086 658.285 65.0039 656.396 65.3945C654.574 65.7852 652.783 66.3711 651.025 67.1523C649.333 67.9336 647.77 69.0078 646.338 70.375C644.971 71.6771 644.222 73.3372 644.092 75.3555V88.832V93.1289C643.766 97.0352 641.65 99.151 637.744 99.4766C635.921 99.4766 634.326 98.8906 632.959 97.7188C631.657 96.4818 631.006 94.9518 631.006 93.1289V76.4297V72.3281C631.201 68.8125 632.438 65.7852 634.717 63.2461C636.995 60.707 639.632 58.6888 642.627 57.1914C645.622 55.6289 648.747 54.457 652.002 53.6758C655.322 52.8945 658.675 52.5039 662.061 52.5039ZM725.635 98.3047C719.906 98.1094 715.576 96.7747 712.646 94.3008C709.717 91.7617 707.601 88.9297 706.299 85.8047C704.997 82.6146 704.346 79.3919 704.346 76.1367C704.346 72.7513 704.964 69.4961 706.201 66.3711C707.503 63.181 709.619 60.349 712.549 57.875C715.544 55.3359 719.32 54.0339 723.877 53.9688H760.986C762.809 53.9688 764.339 54.5872 765.576 55.8242C766.878 56.9961 767.529 58.4284 767.529 60.1211C767.529 61.8789 766.878 63.3763 765.576 64.6133C764.339 65.7852 762.809 66.3711 760.986 66.3711H724.463C723.031 66.3711 721.761 66.8594 720.654 67.8359C719.613 68.8125 718.831 70.082 718.311 71.6445C717.855 73.207 717.627 74.737 717.627 76.2344C717.627 77.862 717.855 79.457 718.311 81.0195C718.831 82.582 719.613 83.8516 720.654 84.8281C721.761 85.7396 723.031 86.2279 724.463 86.293H760.986C762.809 86.293 764.339 86.8789 765.576 88.0508C766.878 89.2227 767.529 90.6224 767.529 92.25C767.529 93.9427 766.878 95.375 765.576 96.5469C764.339 97.7188 762.809 98.3047 760.986 98.3047H725.635ZM766.357 75.9414C766.357 77.1784 765.804 78.2526 764.697 79.1641C763.721 80.0104 762.484 80.4336 760.986 80.4336H729.053C727.555 80.4336 726.286 80.0104 725.244 79.1641C724.202 78.2526 723.682 77.1784 723.682 75.9414C723.682 74.7695 724.202 73.7279 725.244 72.8164C726.286 71.9701 727.555 71.5469 729.053 71.5469H760.986C762.484 71.5469 763.753 72.0026 764.795 72.9141C765.837 73.7604 766.357 74.7695 766.357 75.9414Z" fill="white"/>
</svg>
