<svg width="75" height="87" viewBox="0 0 75 87" fill="none" xmlns="http://www.w3.org/2000/svg">
<mask id="path-1-inside-1_106_52" fill="white">
<path fill-rule="evenodd" clip-rule="evenodd" d="M45 41.5692L48 43.3013L45 45.0333L43 46.188V61.7765L75 43.3013L43 24.8261V40.4145L45 41.5692ZM40 38.6825V23.094L30 17.3205V32.909L40 38.6825ZM40 63.5085V47.9201L30 53.6936V69.282L40 63.5085ZM40 42.1466V44.456L30 50.2295V36.3731L40 42.1466ZM27 51.9615V34.641L18 29.4449V57.1577L27 51.9615ZM27 15.5885V31.1769L18 25.9808V10.3923L27 15.5885ZM27 71.0141V55.4256L18 60.6218V76.2102L27 71.0141ZM15 24.2487V8.66025L0 0V15.5885L15 24.2487ZM0 19.0526L15 27.7128V58.8897L0 67.55V19.0526ZM0 71.0141V86.6025L15 77.9423V62.3538L0 71.0141Z"/>
</mask>
<path fill-rule="evenodd" clip-rule="evenodd" d="M45 41.5692L48 43.3013L45 45.0333L43 46.188V61.7765L75 43.3013L43 24.8261V40.4145L45 41.5692ZM40 38.6825V23.094L30 17.3205V32.909L40 38.6825ZM40 63.5085V47.9201L30 53.6936V69.282L40 63.5085ZM40 42.1466V44.456L30 50.2295V36.3731L40 42.1466ZM27 51.9615V34.641L18 29.4449V57.1577L27 51.9615ZM27 15.5885V31.1769L18 25.9808V10.3923L27 15.5885ZM27 71.0141V55.4256L18 60.6218V76.2102L27 71.0141ZM15 24.2487V8.66025L0 0V15.5885L15 24.2487ZM0 19.0526L15 27.7128V58.8897L0 67.55V19.0526ZM0 71.0141V86.6025L15 77.9423V62.3538L0 71.0141Z" fill="url(#paint0_linear_106_52)"/>
<path d="M48 43.3013L48.25 43.7343L49 43.3013L48.25 42.8683L48 43.3013ZM43 46.188L42.75 45.755L42.5 45.8993V46.188H43ZM43 61.7765H42.5V62.6425L43.25 62.2095L43 61.7765ZM75 43.3013L75.25 43.7343L76 43.3013L75.25 42.8683L75 43.3013ZM43 24.8261L43.25 24.393L42.5 23.96V24.8261H43ZM43 40.4145H42.5V40.7032L42.75 40.8475L43 40.4145ZM40 23.094H40.5V22.8053L40.25 22.661L40 23.094ZM40 38.6825L39.75 39.1155L40.5 39.5485V38.6825H40ZM30 17.3205L30.25 16.8875L29.5 16.4545V17.3205H30ZM30 32.909H29.5V33.1976L29.75 33.342L30 32.909ZM40 47.9201H40.5V47.054L39.75 47.4871L40 47.9201ZM40 63.5085L40.25 63.9415L40.5 63.7972V63.5085H40ZM30 53.6936L29.75 53.2606L29.5 53.4049V53.6936H30ZM30 69.282H29.5V70.1481L30.25 69.715L30 69.282ZM40 42.1466H40.5V41.8579L40.25 41.7136L40 42.1466ZM40 44.456L40.25 44.889L40.5 44.7446V44.456H40ZM30 50.2295H29.5V51.0955L30.25 50.6625L30 50.2295ZM30 36.3731L30.25 35.9401L29.5 35.507V36.3731H30ZM27 34.641H27.5V34.3523L27.25 34.208L27 34.641ZM27 51.9615L27.25 52.3945L27.5 52.2502V51.9615H27ZM18 29.4449L18.25 29.0118L17.5 28.5788V29.4449H18ZM18 57.1577H17.5V58.0237L18.25 57.5907L18 57.1577ZM27 31.1769L26.75 31.6099L27.5 32.0429V31.1769H27ZM27 15.5885H27.5V15.2998L27.25 15.1554L27 15.5885ZM18 25.9808H17.5V26.2694L17.75 26.4138L18 25.9808ZM18 10.3923L18.25 9.95929L17.5 9.52628V10.3923H18ZM27 55.4256H27.5V54.5596L26.75 54.9926L27 55.4256ZM27 71.0141L27.25 71.4471L27.5 71.3028V71.0141H27ZM18 60.6218L17.75 60.1888L17.5 60.3331V60.6218H18ZM18 76.2102H17.5V77.0763L18.25 76.6432L18 76.2102ZM15 8.66025H15.5V8.37158L15.25 8.22724L15 8.66025ZM15 24.2487L14.75 24.6817L15.5 25.1147V24.2487H15ZM0 0L0.25 -0.433013L-0.5 -0.866025L-0.5 0H0ZM0 15.5885H-0.5V15.8771L-0.25 16.0215L0 15.5885ZM15 27.7128H15.5V27.4241L15.25 27.2798L15 27.7128ZM0 19.0526L0.25 18.6195L-0.5 18.1865L-0.5 19.0526H0ZM15 58.8897L15.25 59.3227L15.5 59.1784V58.8897H15ZM0 67.55H-0.5V68.416L0.25 67.983L0 67.55ZM0 86.6025H-0.5V87.4686L0.25 87.0356L0 86.6025ZM0 71.0141L-0.25 70.5811L-0.5 70.7254V71.0141H0ZM15 77.9423L15.25 78.3753L15.5 78.231V77.9423H15ZM15 62.3538H15.5V61.4878L14.75 61.9208L15 62.3538ZM48.25 42.8683L45.25 41.1362L44.75 42.0022L47.75 43.7343L48.25 42.8683ZM45.25 45.4663L48.25 43.7343L47.75 42.8683L44.75 44.6003L45.25 45.4663ZM43.25 46.621L45.25 45.4663L44.75 44.6003L42.75 45.755L43.25 46.621ZM42.5 46.188V61.7765H43.5V46.188H42.5ZM74.75 42.8683L42.75 61.3435L43.25 62.2095L75.25 43.7343L74.75 42.8683ZM42.75 25.2591L74.75 43.7343L75.25 42.8683L43.25 24.393L42.75 25.2591ZM42.5 24.8261V40.4145H43.5V24.8261H42.5ZM45.25 41.1362L43.25 39.9815L42.75 40.8475L44.75 42.0022L45.25 41.1362ZM39.5 23.094V38.6825H40.5V23.094H39.5ZM29.75 17.7535L39.75 23.527L40.25 22.661L30.25 16.8875L29.75 17.7535ZM30.5 32.909V17.3205H29.5V32.909H30.5ZM40.25 38.2495L30.25 32.4759L29.75 33.342L39.75 39.1155L40.25 38.2495ZM39.5 47.9201V63.5085H40.5V47.9201H39.5ZM30.25 54.1266L40.25 48.3531L39.75 47.4871L29.75 53.2606L30.25 54.1266ZM30.5 69.282V53.6936H29.5V69.282H30.5ZM39.75 63.0755L29.75 68.849L30.25 69.715L40.25 63.9415L39.75 63.0755ZM39.5 42.1466V44.456H40.5V42.1466H39.5ZM30.25 50.6625L40.25 44.889L39.75 44.023L29.75 49.7965L30.25 50.6625ZM29.5 36.3731V50.2295H30.5V36.3731H29.5ZM40.25 41.7136L30.25 35.9401L29.75 36.8061L39.75 42.5796L40.25 41.7136ZM26.5 34.641V51.9615H27.5V34.641H26.5ZM17.75 29.8779L26.75 35.074L27.25 34.208L18.25 29.0118L17.75 29.8779ZM18.5 57.1577V29.4449H17.5V57.1577H18.5ZM26.75 51.5285L17.75 56.7247L18.25 57.5907L27.25 52.3945L26.75 51.5285ZM27.5 31.1769V15.5885H26.5V31.1769H27.5ZM17.75 26.4138L26.75 31.6099L27.25 30.7439L18.25 25.5477L17.75 26.4138ZM17.5 10.3923V25.9808H18.5V10.3923H17.5ZM27.25 15.1554L18.25 9.95929L17.75 10.8253L26.75 16.0215L27.25 15.1554ZM26.5 55.4256V71.0141H27.5V55.4256H26.5ZM18.25 61.0548L27.25 55.8586L26.75 54.9926L17.75 60.1888L18.25 61.0548ZM18.5 76.2102V60.6218H17.5V76.2102H18.5ZM26.75 70.5811L17.75 75.7772L18.25 76.6432L27.25 71.4471L26.75 70.5811ZM14.5 8.66025V24.2487H15.5V8.66025H14.5ZM-0.25 0.433013L14.75 9.09327L15.25 8.22724L0.25 -0.433013L-0.25 0.433013ZM0.5 15.5885V0H-0.5V15.5885H0.5ZM15.25 23.8157L0.25 15.1554L-0.25 16.0215L14.75 24.6817L15.25 23.8157ZM15.25 27.2798L0.25 18.6195L-0.25 19.4856L14.75 28.1458L15.25 27.2798ZM15.5 58.8897V27.7128H14.5V58.8897H15.5ZM0.25 67.983L15.25 59.3227L14.75 58.4567L-0.25 67.117L0.25 67.983ZM-0.5 19.0526V67.55H0.5V19.0526H-0.5ZM0.5 86.6025V71.0141H-0.5V86.6025H0.5ZM14.75 77.5093L-0.25 86.1695L0.25 87.0356L15.25 78.3753L14.75 77.5093ZM14.5 62.3538V77.9423H15.5V62.3538H14.5ZM0.25 71.4471L15.25 62.7868L14.75 61.9208L-0.25 70.5811L0.25 71.4471Z" fill="#222222" mask="url(#path-1-inside-1_106_52)"/>
<defs>
<linearGradient id="paint0_linear_106_52" x1="4.5" y1="42" x2="73" y2="96.5" gradientUnits="userSpaceOnUse">
<stop stop-color="#FF7903"/>
<stop offset="1" stop-color="#FF2E00" stop-opacity="0.78"/>
</linearGradient>
</defs>
</svg>
